<?xml version="1.0" encoding="UTF-8"?>
<svg id="Layer_1" xmlns="http://www.w3.org/2000/svg" version="1.1" viewBox="0 0 100 100">
  <!-- Generator: Adobe Illustrator 30.1.0, SVG Export Plug-In . SVG Version: 2.1.1 Build 136)  -->
  <path d="M77.5,44.3c-1.9,0-3.7-.2-5.5-.7-3.1-.7-6-2-8.7-3.7-.1,0-.3-.3-.4-.2-.2,0,0,.3,0,.5,0,7.2,0,14.3,0,21.5,0,5-1.6,9.5-4.9,13.3-3.5,4.1-7.9,6.4-13.2,7.1-4.1.5-8-.2-11.7-2.1-.6-.3-1.2-.6-1.7-1-.2-.2-.3-.3-.5-.4h0c-.4-.2-.7-.5-1.1-.7-3.3-2.6-5.6-5.9-6.9-9.9-.4-1.4-.7-2.8-.9-4.3-.1-1.1-.1-2.1,0-3.2.2-2.4.7-4.8,1.7-7,1-2.3,2.5-4.4,4.3-6.2,2.1-2.1,4.6-3.6,7.4-4.6,1.8-.6,3.6-1,5.4-1.2,1.3,0,2.7,0,4,0,.2,0,.3,0,.3.3,0,.7,0,1.5,0,2.2,0,0,.1,5.7.1,8.2v.3c0,.3-.1.3-.4.3-.7-.2-1.4-.3-2.2-.3-1.1,0-2.2,0-3.3.5-3.5,1.3-5.7,3.9-6.2,7.6-.4,3.7,1,6.7,4.1,8.8.3.2.5.3.8.6,0,0,.1.1.2.2.7.3,1.4.6,2.2.7,2.4.5,4.7.1,6.8-1.2,2.4-1.5,3.8-3.7,4.3-6.5,0-.5.1-1.1.1-1.6V18.4c0-.7,0-.6.6-.6h10.2c.3,0,.3,0,.3.4,0,.8.3,2.6.3,2.7,1.4,7.3,9.9,11.7,12.5,12.1.7.1,1.4.2,2.2.2.3,0,.3,0,.3.3,0,.7.1,7.6.1,10.2s0,.6-.7.6h0Z"/>
</svg>