<?xml version="1.0" encoding="UTF-8"?>
<svg id="Layer_2" xmlns="http://www.w3.org/2000/svg" version="1.1" viewBox="0 0 51.2 51.2">
  <!-- Generator: Adobe Illustrator 30.1.0, SVG Export Plug-In . SVG Version: 2.1.1 Build 136)  -->
  <defs>
    <style>
      .st0 {
        fill: #fff;
        fill-rule: evenodd;
      }
    </style>
  </defs>
  <path class="st0" d="M25.6,6.8C15.3,6.8,6.8,15.3,6.8,25.6s1,7.1,3,10.2l-2.8,6.3c-.3.6-.2,1.3.2,1.7.3.4.8.6,1.2.6s.3,0,.4,0l7.9-2.2c2.7,1.4,5.7,2.2,8.8,2.2,10.3,0,18.8-8.4,18.8-18.8S35.9,6.8,25.6,6.8ZM25.6,41.1c-2.7,0-5.4-.7-7.8-2.1-.3-.1-.5-.2-.8-.2s-.3,0-.4,0l-5.1,1.4,1.8-3.9c.2-.5.2-1.2-.2-1.6-1.9-2.6-2.9-5.8-2.9-9,0-8.5,6.9-15.5,15.5-15.5s15.5,6.9,15.5,15.5-6.9,15.5-15.5,15.5Z"/>
  <path class="st0" d="M32.8,28.4c-.8-.5-1.8-1-2.7-.6-.7.3-1.2,1.4-1.6,2-.2.3-.5.3-.9.2-2.7-1.1-4.7-2.8-6.2-5.3-.2-.4-.2-.7,0-1,.4-.5,1-1.1,1.1-1.8.1-.7-.2-1.5-.5-2.2-.4-.8-.8-1.9-1.6-2.4-.7-.4-1.7-.2-2.4.4-1.1.9-1.7,2.4-1.7,3.8,0,.4,0,.8.2,1.2.2.9.7,1.8,1.2,2.7.4.6.8,1.2,1.2,1.8,1.4,1.9,3.2,3.6,5.3,4.9,1,.6,2.1,1.2,3.3,1.6,1.3.4,2.4.9,3.8.6,1.5-.3,2.9-1.2,3.5-2.6.2-.4.3-.9.2-1.3-.2-.9-1.4-1.4-2.2-1.9Z"/>
</svg>