<?xml version="1.0" encoding="UTF-8"?>
<svg id="Layer_1" xmlns="http://www.w3.org/2000/svg" version="1.1" xmlns:xlink="http://www.w3.org/1999/xlink" viewBox="0 0 140 140">
  <!-- Generator: Adobe Illustrator 30.2.1, SVG Export Plug-In . SVG Version: 2.1.1 Build 1)  -->
  <defs>
    <style>
      .st0 {
        fill: #fff;
      }

      .st1 {
        fill: url(#linear-gradient1);
      }

      .st2 {
        fill: #59595c;
      }

      .st3 {
        fill: url(#linear-gradient);
      }
    </style>
    <linearGradient id="linear-gradient" x1="11.7" y1="66.1" x2="117.9" y2="66.1" gradientUnits="userSpaceOnUse">
      <stop offset="0" stop-color="#be0427"/>
      <stop offset="1" stop-color="#f10213"/>
    </linearGradient>
    <linearGradient id="linear-gradient1" x1="101.8" y1="82" x2="130.5" y2="82" xlink:href="#linear-gradient"/>
  </defs>
  <rect class="st0" y="0" width="140" height="140" rx="32.6" ry="32.6"/>
  <g>
    <path class="st3" d="M102.4,49.5c-4.3,0-7.5,1.5-9.7,4v-3.1h-9.7v12.8l-7.4-4.2c-.5,2.7-1.2,5.1-2.1,7.1l-8.4-9.3c-2-2.2-3.6-3.9-3.6-6.4s1.8-3.8,4.3-3.8,4.7,1.9,5.9,4.9l8.9-5.1c-2.8-6.7-8.4-9.9-14.9-9.9s-14.6,5.6-14.6,13.3.7,5.2,1.9,7.2c-3.1,2-5.3,4.8-6.4,8-.7-8.9-7.4-15.5-15.4-15.5s-7.5,1.5-9.7,4v-3.1h-9.7v45.4h9.7v-16c2.1,2.5,5.3,4,9.7,4,6.8,0,12.6-4.8,14.7-11.6,1,7.3,7.5,11.6,16.1,11.6s8.6-1.4,11.8-3.6l4,4.3,5.3-3v14.3h9.7v-16c2.1,2.5,5.3,4,9.7,4,8.5,0,15.5-7.5,15.5-17.1s-7-17.1-15.5-17.1ZM29.2,74.5c-4.5,0-7.7-3.1-7.7-7.9s3.2-7.9,7.7-7.9,7.7,3.1,7.7,7.9-3.2,7.9-7.7,7.9ZM62.8,74.3c-4.6,0-6.6-2.3-6.6-5.3s.7-3.7,2.4-5.1l.4.4,8.3,9c-1.4.7-2.9,1-4.5,1ZM80.1,73.5c1.2-1.8,2.1-3.7,2.9-5.6v8.8l-2.9-3.2ZM100.4,74.5c-4.5,0-7.7-3.1-7.7-7.9s3.2-7.9,7.7-7.9,7.7,3.1,7.7,7.9-3.2,7.9-7.7,7.9Z"/>
    <g>
      <path class="st2" d="M94.1,34.2c0,.2,0,.4.2.6l3.5,6.3,2.3-7.5,2.6-.2v.3c-.7,0-1.1.5-1,1.3l.6,6.3c0,.8.5,1.1,1.3,1v.2s-3.9.4-3.9.4v-.2c.7,0,1.1-.5,1-1.3l-.6-6.7-2.6,8.4h-.5s-4.4-7.7-4.4-7.7l.6,6.7c0,.8.5,1.1,1.2,1.1v.2s-2.5.2-2.5.2v-.2c.7,0,1.1-.5,1-1.3l-.6-6.3c0-.8-.5-1.1-1.3-1v-.3s3-.3,3-.3Z"/>
      <path class="st2" d="M110.3,39c.4.7.4,1.5.2,2.4l-4.4-1.2c-.3.8-.3,1.5,0,2.1.2.7.7,1.1,1.3,1.2.5.1,1,0,1.5-.2.4-.3.8-.7,1.2-1.2h.2c-.4.8-.9,1.4-1.6,1.7-.7.3-1.3.4-2.1.2-.8-.2-1.4-.7-1.8-1.5-.4-.8-.5-1.6-.2-2.5.3-.9.7-1.6,1.5-2.1.7-.5,1.6-.6,2.4-.4.9.2,1.5.7,1.9,1.4ZM107.6,37.9c-.2.1-.4.3-.6.5-.2.2-.3.5-.4.7-.1.2-.2.5-.3.7l2.8.8c0-.3.2-.6.2-1,0-.4,0-.7-.2-1.1-.1-.4-.4-.6-.7-.7-.2,0-.5,0-.7,0Z"/>
      <path class="st2" d="M114.3,46.7c-.8.1-1.4,0-2-.4-.7-.4-1.1-1-1.2-1.8-.1-.7,0-1.5.6-2.4.5-.9,1.2-1.4,2-1.7.8-.3,1.5-.2,2.2.2.6.4,1,.9,1.2,1.5l1.1-1.8c.4-.6.3-1-.3-1.2v-.2c.1,0,2.3.9,2.3.9l-4.2,6.8c-.4.6-.3,1,.3,1.3v.2c-.1,0-2.2-.7-2.2-.7,0-.2,0-.4.2-.8ZM114.5,41.3c-.5.3-1,.8-1.4,1.5-.5.7-.7,1.4-.7,2.1,0,.7.2,1.1.7,1.4.3.1.6.2,1,0,.4-.1.7-.4,1-.8l1.8-2.9c0-.2-.1-.5-.3-.7-.1-.3-.3-.5-.6-.6-.5-.3-.9-.3-1.5,0Z"/>
      <path class="st2" d="M120.5,44.5l2,1.4-3.5,3.6c-.6.6-.7,1.1-.3,1.5l-.2.2-2.3-2.3.2-.2c.4.4.9.3,1.5-.3l2.5-2.5c.5-.5.5-.9,0-1.2l.2-.2ZM123.9,44.6c-.2.2-.4.3-.6.3-.2,0-.5,0-.6-.3s-.3-.4-.3-.6c0-.2,0-.5.3-.6.2-.2.4-.3.6-.3.2,0,.5,0,.6.3.2.2.3.4.2.6,0,.2,0,.4-.2.6Z"/>
      <path class="st2" d="M126.8,52.4c0,.4-.2.6-.4.7-.1,0-.3,0-.4,0-.1,0-.2-.2-.3-.3,0-.1,0-.3,0-.4,0-.1.1-.3.3-.5.2-.3.3-.4.3-.5,0-.2,0-.4-.2-.7-.2-.3-.5-.5-1-.5-.4,0-.9,0-1.3.2-.5.2-.9.4-1.3.7-.6.4-1,.9-1.2,1.6-.2.6-.1,1.2.2,1.7.6.8,1.5.9,2.8.5v.2c-.7.4-1.4.5-2.1.3-.6-.1-1.2-.5-1.6-1.1-.5-.7-.6-1.5-.5-2.3.2-.8.7-1.5,1.4-2,.8-.5,1.6-.8,2.5-.7.9,0,1.6.6,2.2,1.4.4.6.6,1.3.6,1.9Z"/>
      <path class="st2" d="M129.4,59.8c-.3.3-.7.5-1.2.7l-3,1c-.4.1-.6.3-.5.5,0,.2.2.5.5.7l-.2.2c-.4-.3-.7-.7-.9-1.2-.3-.8-.1-1.3.5-1.6-.3,0-.6-.2-.9-.5-.3-.3-.5-.6-.7-1.1-.2-.5-.1-1,0-1.4.2-.4.5-.7,1.1-.9.8-.3,1.6,0,2.2.8,1.1,1.4,1.9,1.9,2.6,1.7.5-.2.6-.7.4-1.5-.1-.3-.3-.5-.4-.6,0,0-.3,0-.6,0-.2,0-.4,0-.5-.1-.1,0-.2-.1-.3-.3,0-.1,0-.3,0-.4,0-.1.1-.2.3-.3.2,0,.5,0,.8.1.5.3.9.8,1.1,1.6.4,1.3.4,2.2-.2,2.7ZM126.4,58c-.2-.2-.5-.4-.8-.4-.3,0-.6,0-1,0-.3.1-.6.3-.8.6-.2.3-.2.5-.1.9.1.4.4.6.9.7.5,0,1,0,1.6-.2l1.5-.5c-.3-.1-.8-.5-1.4-1.1Z"/>
      <path class="st2" d="M126.3,65.6c-.9,0-1.3.4-1.2,1h-.2s-.4-3.3-.4-3.3h.2c0,.6.6.8,1.4.7l6.4-.7c.7,0,1-.4.8-1h.2s.6,2.4.6,2.4l-3,.3-4.9.5Z"/>
    </g>
    <path class="st1" d="M101.8,95v-1.7c6.8,0,13.3-2.5,18.3-7,5-4.5,8.1-10.7,8.8-17.3l1.7.2c-.7,7.1-4,13.6-9.3,18.4-5.3,4.8-12.2,7.5-19.4,7.5Z"/>
  </g>
</svg>